<svg id="visual" viewBox="0 0 900 600" width="900" height="600" xmlns="http://www.w3.org/2000/svg" xmlns:xlink="http://www.w3.org/1999/xlink" version="1.1"><path d="M0 115L13.7 109C27.3 103 54.7 91 82 91C109.3 91 136.7 103 163.8 100C191 97 218 79 245.2 77C272.3 75 299.7 89 327 91C354.3 93 381.7 83 409 83C436.3 83 463.7 93 491 96C518.3 99 545.7 95 573 86C600.3 77 627.7 63 654.8 66C682 69 709 89 736.2 95C763.3 101 790.7 93 818 92C845.3 91 872.7 97 886.3 100L900 103L900 0L886.3 0C872.7 0 845.3 0 818 0C790.7 0 763.3 0 736.2 0C709 0 682 0 654.8 0C627.7 0 600.3 0 573 0C545.7 0 518.3 0 491 0C463.7 0 436.3 0 409 0C381.7 0 354.3 0 327 0C299.7 0 272.3 0 245.2 0C218 0 191 0 163.8 0C136.7 0 109.3 0 82 0C54.7 0 27.3 0 13.7 0L0 0Z" fill="#6198ff"></path><path d="M0 175L13.7 168C27.3 161 54.7 147 82 151C109.3 155 136.7 177 163.8 172C191 167 218 135 245.2 133C272.3 131 299.7 159 327 167C354.3 175 381.7 163 409 155C436.3 147 463.7 143 491 142C518.3 141 545.7 143 573 138C600.3 133 627.7 121 654.8 123C682 125 709 141 736.2 149C763.3 157 790.7 157 818 157C845.3 157 872.7 157 886.3 157L900 157L900 101L886.3 98C872.7 95 845.3 89 818 90C790.7 91 763.3 99 736.2 93C709 87 682 67 654.8 64C627.7 61 600.3 75 573 84C545.7 93 518.3 97 491 94C463.7 91 436.3 81 409 81C381.7 81 354.3 91 327 89C299.7 87 272.3 73 245.2 75C218 77 191 95 163.8 98C136.7 101 109.3 89 82 89C54.7 89 27.3 101 13.7 107L0 113Z" fill="#3c80ff"></path><path d="M0 337L13.7 331C27.3 325 54.7 313 82 306C109.3 299 136.7 297 163.8 283C191 269 218 243 245.2 270C272.3 297 299.7 377 327 385C354.3 393 381.7 329 409 316C436.3 303 463.7 341 491 344C518.3 347 545.7 315 573 307C600.3 299 627.7 315 654.8 319C682 323 709 315 736.2 326C763.3 337 790.7 367 818 367C845.3 367 872.7 337 886.3 322L900 307L900 155L886.3 155C872.7 155 845.3 155 818 155C790.7 155 763.3 155 736.2 147C709 139 682 123 654.8 121C627.7 119 600.3 131 573 136C545.7 141 518.3 139 491 140C463.7 141 436.3 145 409 153C381.7 161 354.3 173 327 165C299.7 157 272.3 129 245.2 131C218 133 191 165 163.8 170C136.7 175 109.3 153 82 149C54.7 145 27.3 159 13.7 166L0 173Z" fill="#0066ff"></path><path d="M0 481L13.7 481C27.3 481 54.7 481 82 489C109.3 497 136.7 513 163.8 509C191 505 218 481 245.2 485C272.3 489 299.7 521 327 519C354.3 517 381.7 481 409 477C436.3 473 463.7 501 491 517C518.3 533 545.7 537 573 535C600.3 533 627.7 525 654.8 517C682 509 709 501 736.2 495C763.3 489 790.7 485 818 482C845.3 479 872.7 477 886.3 476L900 475L900 305L886.3 320C872.7 335 845.3 365 818 365C790.7 365 763.3 335 736.2 324C709 313 682 321 654.8 317C627.7 313 600.3 297 573 305C545.7 313 518.3 345 491 342C463.7 339 436.3 301 409 314C381.7 327 354.3 391 327 383C299.7 375 272.3 295 245.2 268C218 241 191 267 163.8 281C136.7 295 109.3 297 82 304C54.7 311 27.3 323 13.7 329L0 335Z" fill="#0059dd"></path><path d="M0 601L13.7 601C27.3 601 54.7 601 82 601C109.3 601 136.7 601 163.8 601C191 601 218 601 245.2 601C272.3 601 299.7 601 327 601C354.3 601 381.7 601 409 601C436.3 601 463.7 601 491 601C518.3 601 545.7 601 573 601C600.3 601 627.7 601 654.8 601C682 601 709 601 736.2 601C763.3 601 790.7 601 818 601C845.3 601 872.7 601 886.3 601L900 601L900 473L886.3 474C872.7 475 845.3 477 818 480C790.7 483 763.3 487 736.2 493C709 499 682 507 654.8 515C627.7 523 600.3 531 573 533C545.7 535 518.3 531 491 515C463.7 499 436.3 471 409 475C381.7 479 354.3 515 327 517C299.7 519 272.3 487 245.2 483C218 479 191 503 163.8 507C136.7 511 109.3 495 82 487C54.7 479 27.3 479 13.7 479L0 479Z" fill="#004cbb"></path></svg>