<svg id="visual" viewBox="0 0 900 600" width="900" height="600" xmlns="http://www.w3.org/2000/svg" xmlns:xlink="http://www.w3.org/1999/xlink" version="1.1"><rect x="0" y="0" width="900" height="600" fill="#001220"></rect><path d="M0 368L21.5 375.5C43 383 86 398 128.8 398.8C171.7 399.7 214.3 386.3 257.2 386.7C300 387 343 401 385.8 408.8C428.7 416.7 471.3 418.3 514.2 415.7C557 413 600 406 642.8 399.3C685.7 392.7 728.3 386.3 771.2 378.3C814 370.3 857 360.7 878.5 355.8L900 351L900 601L878.5 601C857 601 814 601 771.2 601C728.3 601 685.7 601 642.8 601C600 601 557 601 514.2 601C471.3 601 428.7 601 385.8 601C343 601 300 601 257.2 601C214.3 601 171.7 601 128.8 601C86 601 43 601 21.5 601L0 601Z" fill="#000000"></path><path d="M0 446L21.5 446.8C43 447.7 86 449.3 128.8 447C171.7 444.7 214.3 438.3 257.2 429C300 419.7 343 407.3 385.8 404.7C428.7 402 471.3 409 514.2 419.2C557 429.3 600 442.7 642.8 448.7C685.7 454.7 728.3 453.3 771.2 444.3C814 435.3 857 418.7 878.5 410.3L900 402L900 601L878.5 601C857 601 814 601 771.2 601C728.3 601 685.7 601 642.8 601C600 601 557 601 514.2 601C471.3 601 428.7 601 385.8 601C343 601 300 601 257.2 601C214.3 601 171.7 601 128.8 601C86 601 43 601 21.5 601L0 601Z" fill="#630000"></path><path d="M0 501L21.5 501C43 501 86 501 128.8 498.8C171.7 496.7 214.3 492.3 257.2 481.7C300 471 343 454 385.8 454.8C428.7 455.7 471.3 474.3 514.2 474.3C557 474.3 600 455.7 642.8 448.3C685.7 441 728.3 445 771.2 454C814 463 857 477 878.5 484L900 491L900 601L878.5 601C857 601 814 601 771.2 601C728.3 601 685.7 601 642.8 601C600 601 557 601 514.2 601C471.3 601 428.7 601 385.8 601C343 601 300 601 257.2 601C214.3 601 171.7 601 128.8 601C86 601 43 601 21.5 601L0 601Z" fill="#901d00"></path><path d="M0 492L21.5 490.7C43 489.3 86 486.7 128.8 492C171.7 497.3 214.3 510.7 257.2 520.2C300 529.7 343 535.3 385.8 533.5C428.7 531.7 471.3 522.3 514.2 515.2C557 508 600 503 642.8 501.5C685.7 500 728.3 502 771.2 499.3C814 496.7 857 489.3 878.5 485.7L900 482L900 601L878.5 601C857 601 814 601 771.2 601C728.3 601 685.7 601 642.8 601C600 601 557 601 514.2 601C471.3 601 428.7 601 385.8 601C343 601 300 601 257.2 601C214.3 601 171.7 601 128.8 601C86 601 43 601 21.5 601L0 601Z" fill="#c0481e"></path><path d="M0 565L21.5 562C43 559 86 553 128.8 551C171.7 549 214.3 551 257.2 551.7C300 552.3 343 551.7 385.8 549C428.7 546.3 471.3 541.7 514.2 539C557 536.3 600 535.7 642.8 537.5C685.7 539.3 728.3 543.7 771.2 548.3C814 553 857 558 878.5 560.5L900 563L900 601L878.5 601C857 601 814 601 771.2 601C728.3 601 685.7 601 642.8 601C600 601 557 601 514.2 601C471.3 601 428.7 601 385.8 601C343 601 300 601 257.2 601C214.3 601 171.7 601 128.8 601C86 601 43 601 21.5 601L0 601Z" fill="#f2723d"></path></svg>