<svg id="visual" viewBox="0 0 900 600" width="900" height="600" xmlns="http://www.w3.org/2000/svg" xmlns:xlink="http://www.w3.org/1999/xlink" version="1.1"><rect x="0" y="0" width="900" height="600" fill="#001220"></rect><path d="M0 448L21.5 447C43 446 86 444 128.8 431.8C171.7 419.7 214.3 397.3 257.2 393.5C300 389.7 343 404.3 385.8 410C428.7 415.7 471.3 412.3 514.2 412.3C557 412.3 600 415.7 642.8 415.7C685.7 415.7 728.3 412.3 771.2 407.2C814 402 857 395 878.5 391.5L900 388L900 601L878.5 601C857 601 814 601 771.2 601C728.3 601 685.7 601 642.8 601C600 601 557 601 514.2 601C471.3 601 428.7 601 385.8 601C343 601 300 601 257.2 601C214.3 601 171.7 601 128.8 601C86 601 43 601 21.5 601L0 601Z" fill="#84cfa9"></path><path d="M0 467L21.5 456.2C43 445.3 86 423.7 128.8 414.8C171.7 406 214.3 410 257.2 419.5C300 429 343 444 385.8 452.7C428.7 461.3 471.3 463.7 514.2 461.3C557 459 600 452 642.8 451.8C685.7 451.7 728.3 458.3 771.2 461.2C814 464 857 463 878.5 462.5L900 462L900 601L878.5 601C857 601 814 601 771.2 601C728.3 601 685.7 601 642.8 601C600 601 557 601 514.2 601C471.3 601 428.7 601 385.8 601C343 601 300 601 257.2 601C214.3 601 171.7 601 128.8 601C86 601 43 601 21.5 601L0 601Z" fill="#53cabe"></path><path d="M0 466L21.5 467C43 468 86 470 128.8 470.5C171.7 471 214.3 470 257.2 465.2C300 460.3 343 451.7 385.8 454.3C428.7 457 471.3 471 514.2 473.8C557 476.7 600 468.3 642.8 472.5C685.7 476.7 728.3 493.3 771.2 501.3C814 509.3 857 508.7 878.5 508.3L900 508L900 601L878.5 601C857 601 814 601 771.2 601C728.3 601 685.7 601 642.8 601C600 601 557 601 514.2 601C471.3 601 428.7 601 385.8 601C343 601 300 601 257.2 601C214.3 601 171.7 601 128.8 601C86 601 43 601 21.5 601L0 601Z" fill="#00c2d5"></path><path d="M0 532L21.5 532.3C43 532.7 86 533.3 128.8 526.7C171.7 520 214.3 506 257.2 506.5C300 507 343 522 385.8 530.2C428.7 538.3 471.3 539.7 514.2 538C557 536.3 600 531.7 642.8 522.2C685.7 512.7 728.3 498.3 771.2 498.2C814 498 857 512 878.5 519L900 526L900 601L878.5 601C857 601 814 601 771.2 601C728.3 601 685.7 601 642.8 601C600 601 557 601 514.2 601C471.3 601 428.7 601 385.8 601C343 601 300 601 257.2 601C214.3 601 171.7 601 128.8 601C86 601 43 601 21.5 601L0 601Z" fill="#00b6e9"></path><path d="M0 566L21.5 560.2C43 554.3 86 542.7 128.8 536C171.7 529.3 214.3 527.7 257.2 530C300 532.3 343 538.7 385.8 542.3C428.7 546 471.3 547 514.2 544.2C557 541.3 600 534.7 642.8 531C685.7 527.3 728.3 526.7 771.2 530.8C814 535 857 544 878.5 548.5L900 553L900 601L878.5 601C857 601 814 601 771.2 601C728.3 601 685.7 601 642.8 601C600 601 557 601 514.2 601C471.3 601 428.7 601 385.8 601C343 601 300 601 257.2 601C214.3 601 171.7 601 128.8 601C86 601 43 601 21.5 601L0 601Z" fill="#3ca6f2"></path></svg>